<?xml version="1.0" encoding="UTF-8"?><svg width="110px" height="110px" viewBox="0 0 110 110" version="1.1" xmlns="http://www.w3.org/2000/svg" xmlns:xlink="http://www.w3.org/1999/xlink"><defs><path d="M83.9203794,49.06 C84.07,32.32 39.7,5.13 26.23,15.06 C12.76,24.99 12.35,71.83 25.64,82.06 C38.93,92.29 83.78,65.8 83.9203794,49.06 Z" id="p"></path><filter x="-18.4%" y="-25.9%" width="169.1%" height="165.8%" filterUnits="objectBoundingBox" id="f"><feOffset dx="11" dy="5" in="SourceAlpha" result="soo"></feOffset><feGaussianBlur stdDeviation="6" in="soo" result="sbo"></feGaussianBlur><feColorMatrix values="0 0 0 0 0 0 0 0 0 0 0 0 0 0 0 0 0 0 0.24 0" in="sbo"></feColorMatrix></filter><linearGradient x1="40.648454%" y1="-0.698808965%" x2="58.0132717%" y2="97.7819663%" id="g3"><stop stop-color="#FAD961" offset="0%"></stop><stop stop-color="#F76B1C" offset="100%"></stop></linearGradient><linearGradient x1="-12747.8846%" y1="3106.92308%" x2="-12767.1154%" y2="3106.92308%" id="g4"><stop stop-color="#FAD961" offset="0%"></stop><stop stop-color="#F76B1C" offset="100%"></stop></linearGradient><linearGradient x1="4.59646587%" y1="33.63572%" x2="93.9149088%" y2="65.6078291%" id="g5"><stop stop-color="#BCABD3" offset="0%"></stop><stop stop-color="#8F64AA" offset="100%"></stop></linearGradient><linearGradient x1="41.3547738%" y1="2.67494202%" x2="58.4349224%" y2="99.5412784%" id="g6"><stop stop-color="#FAD961" offset="0%"></stop><stop stop-color="#F76B1C" offset="100%"></stop></linearGradient><linearGradient x1="97.1885514%" y1="41.770174%" x2="0.32221504%" y2="58.8503226%" id="g7"><stop stop-color="#FAD961" offset="0%"></stop><stop stop-color="#F76B1C" offset="100%"></stop></linearGradient><linearGradient x1="12.6579131%" y1="36.8928242%" x2="86.8162327%" y2="62.4275814%" id="g8"><stop stop-color="#FAD961" offset="0%"></stop><stop stop-color="#F76B1C" offset="100%"></stop></linearGradient><linearGradient x1="62.9906871%" y1="13.5779737%" x2="37.4559299%" y2="87.7362934%" id="g9"><stop stop-color="#FAD961" offset="0%"></stop><stop stop-color="#F76B1C" offset="100%"></stop></linearGradient><linearGradient x1="-2.75216161%" y1="17.762467%" x2="100.339092%" y2="80.7134844%" id="g10"><stop stop-color="#39D1FF" offset="0%"></stop><stop stop-color="#1287DE" offset="100%"></stop></linearGradient></defs><g stroke="none" stroke-width="1" fill="none" fill-rule="evenodd"><g transform="translate(5.000000, 5.000000)"><rect x="0" y="0" width="100" height="100"></rect><path d="M39.12,36.72 C61.75,26 83.87,23.88 88.53,31.88 L90.37,31.01 C85.5,22.65 62.37,24.92 38.74,36.07 C15.11,47.22 -0.13,63.07 4.74,71.39 L6.58,70.52 C1.93,62.52 16.49,47.39 39.12,36.72 Z" fill="#00FFFF"></path><g><use fill="black" fill-opacity="1" filter="url(#f)" xlink:href="#p"></use><use fill="#FFF" fill-rule="evenodd" xlink:href="#p"></use></g><path d="M56,65.68 C33.37,76.35 11.25,78.52 6.59,70.52 L4.75,71.39 C9.62,79.75 32.75,77.48 56.38,66.33 C80.01,55.18 95.25,39.33 90.38,31.01 L88.54,31.88 C93.19,39.88 78.63,55 56,65.68 Z" fill="#00FFFF"></path><circle stroke="url(#g4)" stroke-width="0.8" fill="url(#g3)" cx="49.91" cy="27" r="2.6"></circle><circle fill="url(#g5)" cx="25.51" cy="35.77" r="17"></circle><path d="M28.91,26.57 L16.61,31.47 C16.0704937,31.5793849 15.6054878,31.9185509 15.3365197,32.3988511 C15.0675516,32.8791512 15.0213535,33.4528495 15.21,33.97 L16.51,43.17 C16.81,44.37 19.31,45.27 20.41,44.97 L33.91,41.07 C34.4495063,40.9606151 34.9145122,40.6214491 35.1834803,40.1411489 C35.4524484,39.6608488 35.4986465,39.0871505 35.31,38.57 L32.51,29 C32.21,27.87 30.11,26.27 28.91,26.57 Z" fill="#D9D9D9"></path><path d="M28.31,26.67 L14.81,30.57 C14.2704937,30.6793849 13.8054878,31.0185509 13.5365197,31.4988511 C13.2675516,31.9791512 13.2213535,32.5528495 13.41,33.07 L16.21,42.67 C16.3193849,43.2095063 16.6585509,43.6745122 17.1388511,43.9434803 C17.6191512,44.2124484 18.1928495,44.2586465 18.71,44.07 L32.21,40.17 C32.7495063,40.0606151 33.2145122,39.7214491 33.4834803,39.2411489 C33.7524484,38.7608488 33.7986465,38.1871505 33.61,37.67 L30.81,28.07 C30.7069393,27.52685 30.3688265,27.0571395 29.8864692,26.7870193 C29.4041118,26.5168992 28.8269526,26.4740574 28.31,26.67 L28.31,26.67 Z" id="p1" fill="#FFF"></path><rect fill="#D3D3D3" transform="translate(22.848797, 32.906184) rotate(-16.000000) translate(-22.848797, -32.906184)" x="13.8487967" y="31.4061841" width="18" height="3"></rect><circle fill="#D3D3D3" transform="translate(28.161793, 38.707868) rotate(-16.000000) translate(-28.161793, -38.707868)" cx="28.1617929" cy="38.7078676" r="1.5"></circle><circle stroke="#FFF" stroke-width="0.5" fill="#D3D3D3" transform="translate(30.055951, 38.109769) rotate(-16.000000) translate(-30.055951, -38.109769)" cx="30.0559515" cy="38.1097686" r="1.8"></circle><polygon stroke="url(#g7)" fill="url(#g6)" points="30.86 62.42 31.26 64.92 28.76 65.32 28.96 66.22 31.46 65.82 31.86 68.32 32.76 68.12 32.36 65.62 34.86 65.22 34.66 64.32 32.16 64.72 31.76 62.22"></polygon><polygon stroke="url(#g9)" fill="url(#g8)" points="60.06 36.6 61.36 32.8 65.16 34.1 63.86 37.9"></polygon><rect fill="url(#g10)" transform="translate(70.850789, 62.599025) rotate(-12.610000) translate(-70.850789, -62.599025)" x="50.080789" y="41.8290248" width="41.54" height="41.54" rx="7.65"></rect><rect fill="#00FFFF" x="67.61" y="15.75" width="1.2" height="1.2"></rect><rect fill="#00FFFF" x="67.85" y="12.47" width="1" height="2.59"></rect><rect fill="#00FFFF" x="67.85" y="17.65" width="1" height="2.59"></rect><rect fill="#00FFFF" transform="translate(70.795000, 16.350000) rotate(90.000000) translate(-70.795000, -16.350000)" x="70.435" y="15.055" width="1" height="2.59"></rect><rect fill="#00FFFF" transform="translate(65.625000, 16.360000) rotate(90.000000) translate(-65.625000, -16.360000)" x="65.265" y="15.065" width="1" height="2.59"></rect><rect fill="#00FFFF" x="3.33" y="48.37" width="1.01" height="1.65"></rect><rect fill="#00FFFF" x="3.33" y="51.03" width="1.01" height="1.65"></rect><rect fill="#00FFFF" transform="translate(5.175000, 50.525000) rotate(90.000000) translate(-5.175000, -50.525000)" x="4.67" y="49.7" width="1.01" height="1.65"></rect><rect fill="#00FFFF" transform="translate(2.505000, 50.525000) rotate(90.000000) translate(-2.505000, -50.525000)" x="2" y="49.7" width="1.01" height="1.65"></rect><rect fill="#00FFFF" x="97.25" y="44.91" width="1.01" height="1.65"></rect><rect fill="#00FFFF" x="97.25" y="47.58" width="1.01" height="1.65"></rect><rect fill="#00FFFF" transform="translate(99.095000, 47.065000) rotate(90.000000) translate(-99.095000, -47.065000)" x="98.59" y="46.24" width="1.01" height="1.65"></rect><rect fill="#00FFFF" transform="translate(96.425000, 47.065000) rotate(90.000000) translate(-96.425000, -47.065000)" x="95.92" y="46.24" width="1.01" height="1.65"></rect><g transform="translate(59.000000, 47.000000)"><g transform="translate(10.000000, 5.000000)" fill="#D9D9D9"><path d="M3.89,0.71 L2.99,1.6 C2.03833489,1.65998344 1.09241636,1.79033971 0.16,1.99 L1.06,1.1 C1.99241636,0.900339707 2.93833489,0.769983443 3.89,0.71 L3.89,0.71 Z"></path><path d="M3.89,0.71 L2.99,1.6 C2.03833489,1.65998344 1.09241636,1.79033971 0.16,1.99 L1.06,1.1 C1.99241636,0.900339707 2.93833489,0.769983443 3.89,0.71"></path></g><g transform="translate(13.000000, 5.000000)" fill="#D9D9D9"><path d="M3.72,6.79 L2.82,7.68 C3.81940528,5.77264873 3.28043664,3.42155718 1.55,2.14 C1.09357778,1.81941137 0.556819352,1.63241166 0,1.6 L0.9,0.71 C1.46026694,0.740572008 2.00073113,0.927655766 2.46,1.25 C4.19043664,2.53155718 4.72940528,4.88264873 3.73,6.79 L3.72,6.79 Z"></path><path d="M3.72,6.79 L2.82,7.68 C3.81940528,5.77264873 3.28043664,3.42155718 1.55,2.14 C1.09357778,1.81941137 0.556819352,1.63241166 0,1.6 L0.9,0.71 C1.46026694,0.740572008 2.00073113,0.927655766 2.46,1.25 C4.19043664,2.53155718 4.72940528,4.88264873 3.73,6.79"></path></g><polygon fill="#D9D9D9" points="11.06 6.1 10.16 6.98 9.2 7.21 10.1 6.32"></polygon><g transform="translate(15.000000, 11.000000)" fill="#D9D9D9"><path d="M1.19,1.48 L0.29,2.37 C0.493987308,2.16233786 0.671960681,1.93063668 0.82,1.68 L1.72,0.79 C1.57196068,1.04063668 1.39398731,1.27233786 1.19,1.48 Z"></path><path d="M1.19,1.48 L0.29,2.37 C0.493987308,2.16233786 0.671960681,1.93063668 0.82,1.68 L1.72,0.79 C1.57196068,1.04063668 1.39398731,1.27233786 1.19,1.48"></path></g><g transform="translate(8.000000, 6.000000)" fill="#D9D9D9"><path d="M0.51,1.59 L1.41,0.7 C1.59854613,0.509448935 1.83816965,0.377482358 2.1,0.32 L1.2,1.21 C0.938169653,1.26748236 0.698546131,1.39944893 0.51,1.59 L0.51,1.59 Z"></path><path d="M2.1,0.32 L1.2,1.21 C0.938169653,1.26748236 0.698546131,1.39944893 0.51,1.59 L1.41,0.7 C1.59854613,0.509448935 1.83816965,0.377482358 2.1,0.32"></path></g><g transform="translate(2.000000, 3.000000)" fill="#D9D9D9"><path d="M0.49,1.1 L1.39,0.21 C1.2575022,0.339686152 1.14009001,0.483935414 1.04,0.64 L0.14,1.53 C0.24009001,1.37393541 0.3575022,1.22968615 0.49,1.1 Z"></path><path d="M1,0.65 L0.1,1.54 C0.20009001,1.38393541 0.3175022,1.23968615 0.45,1.11 L1.35,0.22 C1.2175022,0.349686152 1.10009001,0.493935414 1,0.65"></path></g><g transform="translate(14.000000, 15.000000)" fill="#D9D9D9"><path d="M6.64,0.67 L5.74,1.56 C4.35829005,2.89173292 2.62257398,3.79777671 0.74,4.17 L1.64,3.28 C3.52257398,2.90777671 5.25829005,2.00173292 6.64,0.67 Z"></path><path d="M6.64,0.67 L5.74,1.56 C4.35829005,2.89173292 2.62257398,3.79777671 0.74,4.17 L1.64,3.28 C3.52257398,2.90777671 5.25829005,2.00173292 6.64,0.67"></path></g><g transform="translate(1.000000, 3.000000)" fill="#D9D9D9"><path d="M1.79,2.9 L0.89,3.79 C0.681965458,3.03132673 0.775118466,2.22161212 1.15,1.53 L2.05,0.64 C1.67511847,1.33161212 1.58196546,2.14132673 1.79,2.9 L1.79,2.9 Z"></path><path d="M1.79,2.9 L0.89,3.79 C0.681965458,3.03132673 0.775118466,2.22161212 1.15,1.53 L2.05,0.64 C1.67511847,1.33161212 1.58196546,2.14132673 1.79,2.9"></path></g><g transform="translate(17.000000, 22.000000)" fill="#D9D9D9"><path d="M2.38,0.23 L1.48,1.12 C1.17981466,1.4138741 0.801441305,1.61521038 0.39,1.7 L1.29,0.81 C1.70144131,0.725210379 2.07981466,0.523874101 2.38,0.23 L2.38,0.23 Z"></path><path d="M2.38,0.23 L1.48,1.12 C1.17981466,1.4138741 0.801441305,1.61521038 0.39,1.7 L1.29,0.81 C1.70144131,0.725210379 2.07981466,0.523874101 2.38,0.23"></path></g><polygon fill="#D9D9D9" points="15.66 18.28 14.77 19.17 10.7 20.1 11.6 19.21"></polygon><polygon fill="#D9D9D9" points="5.03 15.62 4.13 16.5 1.89 6.79 2.79 5.91"></polygon><polygon fill="#D9D9D9" points="18.29 22.81 17.39 23.69 11.82 24.97 12.72 24.08"></polygon><polygon fill="#D9D9D9" points="6.38 21.52 5.48 22.41 5.24 21.35 6.14 20.46"></polygon><polygon fill="#D9D9D9" points="6.14 20.46 5.24 21.35 3.66 21.7 4.56 20.82"></polygon><g transform="translate(0.000000, 16.000000)" fill="#D9D9D9"><path d="M1.26,1.54 L2.16,0.65 C2.04229728,0.767900097 1.93830335,0.898731177 1.85,1.04 C1.20739282,2.24623887 1.54816023,3.74135588 2.65,4.55 C3.01572322,4.77780972 3.43916722,4.8958187 3.87,4.89 C4.10227577,4.8893519 4.33373786,4.86251571 4.56,4.81 L3.66,5.7 C3.43373786,5.75251571 3.20227577,5.7793519 2.97,5.78 C2.53916722,5.7858187 2.11572322,5.66780972 1.75,5.44 C0.648160229,4.63135588 0.30739282,3.13623887 0.95,1.93 C1.03830335,1.78873118 1.14229728,1.6579001 1.26,1.54 L1.26,1.54 Z"></path><path d="M4.56,4.82 L3.66,5.71 C3.43373786,5.76251571 3.20227577,5.7893519 2.97,5.79 C2.53916722,5.7958187 2.11572322,5.67780972 1.75,5.45 C0.648160229,4.64135588 0.30739282,3.14623887 0.95,1.94 C1.03830335,1.79873118 1.14229728,1.6679001 1.26,1.55 L2.16,0.66 C2.04229728,0.777900097 1.93830335,0.908731177 1.85,1.05 C1.20739282,2.25623887 1.54816023,3.75135588 2.65,4.56 C3.01572322,4.78780972 3.43916722,4.9058187 3.87,4.9 C4.10227577,4.8993519 4.33373786,4.87251571 4.56,4.82"></path></g><polygon fill="#D9D9D9" points="7.53 26.47 6.63 27.36 6.36 26.22 7.26 25.33"></polygon><g transform="translate(6.000000, 26.000000)" fill="#D9D9D9"><path d="M6.36,2 L5.46,2.89 C5.06370791,3.26806217 4.56751164,3.52483507 4.03,3.63 C3.76805944,3.69395021 3.49962244,3.72750483 3.23,3.73 C2.74956944,3.73665476 2.27739811,3.60472454 1.87,3.35 C1.19065682,2.88874488 0.736921634,2.16276859 0.62,1.35 L1.52,0.46 C1.63692163,1.27276859 2.09065682,1.99874488 2.77,2.46 C3.17739811,2.71472454 3.64956944,2.84665476 4.13,2.84 C4.39962244,2.83750483 4.66805944,2.80395021 4.93,2.74 C5.46751164,2.63483507 5.96370791,2.37806217 6.36,2 L6.36,2 Z"></path><path d="M6.36,2 L5.46,2.89 C5.06370791,3.26806217 4.56751164,3.52483507 4.03,3.63 C3.76805944,3.69395021 3.49962244,3.72750483 3.23,3.73 C2.74956944,3.73665476 2.27739811,3.60472454 1.87,3.35 C1.19065682,2.88874488 0.736921634,2.16276859 0.62,1.35 L1.52,0.46 C1.63692163,1.27276859 2.09065682,1.99874488 2.77,2.46 C3.17739811,2.71472454 3.64956944,2.84665476 4.13,2.84 C4.39962244,2.83750483 4.66805944,2.80395021 4.93,2.74 C5.46751164,2.63483507 5.96370791,2.37806217 6.36,2"></path></g><polygon fill="#D9D9D9" points="7.26 25.33 6.36 26.22 4.27 26.7 5.17 25.81"></polygon><path d="M22.83,7.49 C23.4705321,9.88797162 23.0283261,12.4461882 21.62,14.49 C20.1796471,16.4756141 18.0318184,17.832326 15.62,18.28 L11.56,19.22 L11.8,20.28 L17.37,19.01 C17.5504798,18.9692974 17.7349893,18.9491691 17.92,18.95 C18.2703528,18.9475803 18.6151942,19.0372391 18.92,19.21 C19.7866327,19.8540538 20.0577772,21.0318375 19.56,21.99 C19.2449077,22.4252022 18.7769827,22.7252458 18.25,22.83 L12.68,24.1 L12.94,25.24 C13.1683193,26.0157402 13.0670426,26.8512734 12.66,27.55 C12.2580567,28.170676 11.6175253,28.5976969 10.89,28.73 C10.6280594,28.7939502 10.3596224,28.8275048 10.09,28.8302399 C9.60956944,28.8366548 9.13739811,28.7047245 8.73,28.45 C8.05065682,27.9887449 7.59692163,27.2627686 7.48,26.45 L7.21,25.31 L5.12,25.79 C4.93605657,25.8302183 4.74828856,25.8503363 4.56,25.85 C4.20698648,25.8636028 3.85819491,25.7694291 3.56,25.58 C2.89766263,25.1410904 2.55795854,24.3517292 2.69455761,23.5689948 C2.83115668,22.7862605 3.41814884,22.1586218 4.19,21.97 L6.28,21.49 L6.04,20.43 L4.46,20.78 C4.23373786,20.8325157 4.00227577,20.8593519 3.77,20.86 C3.33916722,20.8658187 2.91572322,20.7478097 2.55,20.52 C1.44816023,19.7113559 1.10739282,18.2162389 1.75,17.01 C2.11529377,16.4520928 2.6938133,16.0688236 3.35,15.95 L5,15.62 L2.79,5.9 C2.56932746,5.15077693 2.64449166,4.34544619 3,3.65 C3.46613204,2.97398564 4.18898824,2.51858623 5,2.39 L11.45,0.91 C12.3352076,0.702735285 13.2408674,0.595397832 14.15,0.59 C15.754683,0.572983904 17.3339855,0.991136207 18.72,1.8 C20.859368,3.00078733 22.3624162,5.08164969 22.83,7.49 L22.83,7.49 Z M16.72,11.79 C17.7194053,9.88264873 17.1804366,7.53155718 15.45,6.25 C14.9907311,5.92765577 14.4502669,5.74057201 13.89,5.71 C12.9383349,5.76998344 11.9924164,5.90033971 11.06,6.1 L10.06,6.33 C9.31330712,6.50857829 8.84377532,7.24831235 9,8 L10.14,13 C10.2927967,13.6442487 10.8678801,14.0993507 11.53,14.1 C11.636311,14.1123191 11.743689,14.1123191 11.85,14.1 L12.85,13.88 C13.769849,13.6629454 14.6697158,13.3685652 15.54,13 C16.045995,12.7395045 16.4609663,12.3315075 16.73,11.83 L16.72,11.79 Z" fill="#FFF"></path><g transform="translate(1.000000, 22.000000)" fill="#D9D9D9"><path d="M1.36,1.42 L2.26,0.53 C2.1685228,0.620251852 2.08797023,0.720942573 2.02,0.83 C1.52222284,1.78816252 1.79336729,2.96594623 2.66,3.61 C2.95819491,3.79942909 3.30698648,3.89360281 3.66,3.88 C3.84828856,3.88033626 4.03605657,3.86021826 4.22,3.82 L3.32,4.71 C3.13605657,4.75021826 2.94828856,4.77033626 2.76,4.77 C2.40698648,4.78360281 2.05819491,4.68942909 1.76,4.5 C0.893367286,3.85594623 0.622222836,2.67816252 1.12,1.72 C1.18797023,1.61094257 1.2685228,1.51025185 1.36,1.42 L1.36,1.42 Z"></path><path d="M4.17,3.82 L3.27,4.71 C3.08605657,4.75021826 2.89828856,4.77033626 2.71,4.77 C2.35698648,4.78360281 2.00819491,4.68942909 1.71,4.5 C0.843367286,3.85594623 0.572222836,2.67816252 1.07,1.72 C1.13797023,1.61094257 1.2185228,1.51025185 1.31,1.42 L2.21,0.53 C2.1185228,0.620251852 2.03797023,0.720942573 1.97,0.83 C1.47222284,1.78816252 1.74336729,2.96594623 2.61,3.61 C2.90819491,3.79942909 3.25698648,3.89360281 3.61,3.88 C3.79828856,3.88033626 3.98605657,3.86021826 4.17,3.82"></path></g></g></g></g></svg>
